<svg xmlns="http://www.w3.org/2000/svg" width="174.09" height="282.78" viewBox="0 0 174.09 282.78"><defs><style>.a{fill:#1d1d1b;}</style></defs><path d="M107.74,157.92"/><path d="M44.37,149.73c-1.45-4.83-1-9.79-1.87-14.61-.83-4.43-1.93-8.82-3-13.21-.65-2.69-1.42-5.35-2.22-8a2,2,0,0,0-1.1-1.16,62.06,62.06,0,0,1-15.57-6.63c-8-5.07-14.6-11.43-17.88-20.58C.18,78.42-.29,71,.14,63.51a43.35,43.35,0,0,1,6.12-20.4,34.63,34.63,0,0,1,14.1-13c6.5-3.31,13.32-4.31,20.46-4.06,1.94.06,3.89.06,5.83.07,1,0,1.91.36,1.69,1.4a2.76,2.76,0,0,1-1.61,1.81,22.19,22.19,0,0,1-5.38.71c-8.9,0-15.78,4-21.64,10.34a36.23,36.23,0,0,0-8,14.25,47.24,47.24,0,0,0-1.36,21,39.5,39.5,0,0,0,7.69,18.75,32.51,32.51,0,0,0,15.65,11.24,5.61,5.61,0,0,0,1,.07,14.72,14.72,0,0,0-1.17-7.55,21,21,0,0,1-1.67-9.79,4.94,4.94,0,0,1,.65-2,9.61,9.61,0,0,1,1.64-1.53c.51.58,1.26,1.08,1.51,1.75,1,2.64,1.82,5.33,2.63,8,1,3.23,1.85,6.49,2.75,9.75.94,3.42,1.85,6.85,2.76,10.27.76,2.83,1.58,5.63,2.22,8.48.72,3.2,1.29,6.44,1.9,9.66.34,1.78.63,3.57,1,5.5a2.53,2.53,0,0,0,.92-.32,47.08,47.08,0,0,1,17.81-8.7,40.34,40.34,0,0,1,8.56-1.21,100.09,100.09,0,0,1,12,0c1.41.1,2.81.26,4.22.44,2.64.35,5.27.81,7.91,1.19a66.51,66.51,0,0,1,16,4.9c2.59,1.09,5,2.54,7.53,3.82.44.23.89.43,1.56.76.27-2.33.57-4.43.73-6.54.41-5.63.52-11.31,1.22-16.91s1.79-11.08,3-16.55c.64-2.84,1.38-5.58.53-8.44a6.43,6.43,0,0,0-1.17-2.39c-4.39-5.08-9.34-9.46-15.78-11.81-3.21-1.17-6.52-.76-9.82-.56-3.12.2-6.23.43-9.36.55a7.08,7.08,0,0,1-2-.6,6.6,6.6,0,0,1,5.45-3.36,95.24,95.24,0,0,1,10.4-.69c5.15,0,8.62-2.62,11.53-6.57a27.81,27.81,0,0,1,4.64-4.49,7.51,7.51,0,0,1,2.54-.86c.49,3.36-1,5.69-2.73,7.91-.92,1.16-1.76,2.37-2.72,3.5a1.81,1.81,0,0,0,.27,2.83c2.73,2.37,5.63,4.57,8.28,7,2.43,2.26,5.09,4.49,6.82,7.26s.91,6.36-.17,9.57c-.9,2.65-1.64,5.35-2.45,8l.47.44a25.31,25.31,0,0,0,2.89-.85c8.46-3.54,14.85-9.7,19.92-17,6.14-8.85,9.79-18.68,8.38-29.78a18.4,18.4,0,0,0-4.38-9.19q-2.34-2.93-4.56-6a10.18,10.18,0,0,1-.87-2c3.4-.72,6,.55,8.26,2.46a25.94,25.94,0,0,1,8.39,14.08,40.27,40.27,0,0,1,.47,15.46c-.7,5-2.83,9.62-5.39,14a52.82,52.82,0,0,1-14.53,16.14,42.55,42.55,0,0,1-18.12,8,2.05,2.05,0,0,0-2,2c-1.44,8.43-.72,17-1.55,25.42l-3.06,3.2-2.23-4-6.66-4.3-6.82-3.11-8.59-2.52-21,1.33-12.44.45-8,3.55L55,139.53l-6.37,4.74Z"/><path d="M50.45,31.43a18.9,18.9,0,0,1,2.23-8.74c4.39-9,12-14.41,21-18.17,11.28-4.71,23.07-5.2,35-3.9,4.23.46,8.38,1.75,12.52,2.79C130.37,5.73,137.8,11,144,17.93c6.88,7.7,9.91,16.57,7.81,26.92-.44,2.21-.88,4.33-3.4,5.67a9.38,9.38,0,0,1-.81-2.21,52.51,52.51,0,0,1-.14-5.47c.12-4.53-1.53-8.52-3.69-12.33a36.46,36.46,0,0,0-12.67-12.83,57.11,57.11,0,0,0-15.34-6.47A69.68,69.68,0,0,0,92.65,9c-11,.74-21.36,3.82-30.2,10.73-3,2.32-5.82,4.87-7.31,8.62C54.43,30.1,53.22,31.92,50.45,31.43Z"/><path class="a" d="M91.59,132.49q44.7,0,44.7,43l-17.15,7.87c.2-4,.3-7.16.3-9.38q0-30.48-24.42-30.48-25.83,0-25.83,64.69,0,55.6,28.86,55.6,11.91,0,19.83-9.49t7.92-23.71a100.88,100.88,0,0,0-1.31-13.42l17,4.44c.27,3.5.41,6.52.41,9.08q0,20.08-14.54,32.09t-38.95,12q-61.24,0-61.25-68.93,0-32.68,17.86-53t46.52-20.34m0-8c-21.42,0-39.09,7.76-52.53,23.06-13.17,15-19.85,34.61-19.85,58.3,0,63.58,37.66,76.93,69.25,76.93,18.12,0,32.94-4.66,44.05-13.84C144.08,259.38,150,246.5,150,230.68c0-2.73-.15-6-.43-9.69a8,8,0,0,0-6-7.13l-17.06-4.44a7.65,7.65,0,0,0-2-.26,8,8,0,0,0-7.92,9.16,89.82,89.82,0,0,1,1.23,12.26c0,7.62-2,13.7-6.06,18.58-3.77,4.52-8.12,6.62-13.69,6.62-6.62,0-11.11-3-14.55-9.59-4.19-8.07-6.31-20.86-6.31-38,0-21.17,2.31-56.69,17.83-56.69,8.53,0,16.42,2.72,16.42,22.48,0,2.07-.1,5.09-.29,9a8,8,0,0,0,11.33,7.67l17.15-7.87a8,8,0,0,0,4.66-7.27c0-16.52-4.58-29.31-13.63-38s-22.1-13-39.07-13Z"/></svg>